<svg width="471" height="194" viewBox="0 0 471 194" fill="none" xmlns="http://www.w3.org/2000/svg">
<path d="M45.696 31.832C45.696 40.6213 43.2213 46.744 38.272 50.2C33.7067 53.4 27.4347 55 19.456 55H1.344V53.784H5.568V11.416H1.344V10.2H21.12C29.312 10.2 35.456 11.8853 39.552 15.256C43.648 18.584 45.696 24.1093 45.696 31.832ZM18.048 53.784H20.48C24.7893 53.784 27.8613 52.2693 29.696 49.24C31.5733 46.168 32.512 41.048 32.512 33.88V30.168C32.512 20.568 30.6773 14.7867 27.008 12.824C25.2587 11.8853 22.784 11.416 19.584 11.416H18.048V53.784ZM58.3605 20.12C56.0992 20.12 54.4778 19.544 53.4965 18.392C52.5578 17.24 52.0885 15.8107 52.0885 14.104C52.0885 12.3973 52.6005 10.9893 53.6245 9.88C54.6912 8.77067 56.2912 8.216 58.4245 8.216C60.5578 8.216 62.1792 8.728 63.2885 9.752C64.3978 10.7333 64.9525 12.1627 64.9525 14.04C64.9525 15.8747 64.4192 17.3467 63.3525 18.456C62.2858 19.5653 60.6218 20.12 58.3605 20.12ZM48.6965 24.536H64.3765V53.848H67.9605V55H48.9525V53.848H52.4725V25.688H48.6965V24.536ZM94.929 21.208L96.721 20.12C96.977 18.7973 96.465 18.136 95.185 18.136C93.3503 18.136 92.433 19.544 92.433 22.36C92.433 23.4693 92.5823 24.7493 92.881 26.2C96.1237 28.376 97.745 31.1707 97.745 34.584C97.745 37.9547 96.5717 40.5787 94.225 42.456C91.8783 44.3333 88.6997 45.272 84.689 45.272C83.025 45.272 81.297 45.1013 79.505 44.76C77.6277 45.9547 76.689 46.8507 76.689 47.448C76.689 48.0453 78.0543 48.344 80.785 48.344H87.313C96.9983 48.344 101.841 51.8213 101.841 58.776C101.841 62.5307 100.369 65.496 97.425 67.672C94.5237 69.8907 89.9797 71 83.793 71C73.2543 71 67.985 68.7173 67.985 64.152C67.985 61.6773 69.6277 59.9707 72.913 59.032L76.753 60.76C76.4117 61.9973 76.241 63.1707 76.241 64.28C76.241 67.9493 78.9717 69.784 84.433 69.784C87.761 69.784 90.321 69.1653 92.113 67.928C93.905 66.6907 94.801 65.1547 94.801 63.32C94.801 61.4853 94.2463 60.248 93.137 59.608C92.0703 59.0107 89.9157 58.712 86.673 58.712H80.465C77.009 58.712 74.5343 58.136 73.041 56.984C71.5477 55.832 70.801 54.424 70.801 52.76C70.801 51.0533 71.3343 49.6453 72.401 48.536C73.4677 47.384 75.3663 45.976 78.097 44.312C73.1477 42.904 70.673 39.6613 70.673 34.584C70.673 31.384 71.825 28.8027 74.129 26.84C76.433 24.8773 79.889 23.896 84.497 23.896C87.2703 23.896 89.6383 24.4293 91.601 25.496C91.345 24.344 91.217 23.2987 91.217 22.36C91.217 19.9707 91.857 18.2427 93.137 17.176C94.417 16.1093 95.8463 15.576 97.425 15.576C99.0037 15.576 100.262 16.0027 101.201 16.856C102.182 17.6667 102.673 18.7973 102.673 20.248C102.673 21.6987 102.289 22.7867 101.521 23.512C100.753 24.1947 99.8143 24.536 98.705 24.536C97.6383 24.536 96.7423 24.2587 96.017 23.704C95.3343 23.1067 94.9717 22.2747 94.929 21.208ZM81.361 33.176V36.632C81.361 39.4907 81.5957 41.432 82.065 42.456C82.577 43.48 83.3237 43.992 84.305 43.992C85.329 43.992 86.0543 43.5013 86.481 42.52C86.9503 41.496 87.185 39.4267 87.185 36.312V33.176C87.185 29.848 86.9717 27.672 86.545 26.648C86.1183 25.5813 85.393 25.048 84.369 25.048C83.3877 25.048 82.641 25.6027 82.129 26.712C81.617 27.7787 81.361 29.9333 81.361 33.176ZM112.111 20.12C109.849 20.12 108.228 19.544 107.247 18.392C106.308 17.24 105.839 15.8107 105.839 14.104C105.839 12.3973 106.351 10.9893 107.375 9.88C108.441 8.77067 110.041 8.216 112.175 8.216C114.308 8.216 115.929 8.728 117.039 9.752C118.148 10.7333 118.703 12.1627 118.703 14.04C118.703 15.8747 118.169 17.3467 117.103 18.456C116.036 19.5653 114.372 20.12 112.111 20.12ZM102.447 24.536H118.127V53.848H121.711V55H102.703V53.848H106.223V25.688H102.447V24.536ZM126.215 45.848V25.688H122.695V24.536H126.215V16.28L138.119 13.336V24.536H146.439V25.688H138.119V47.256C138.119 49.2613 138.311 50.7333 138.695 51.672C139.122 52.6107 139.975 53.08 141.255 53.08C142.535 53.08 143.644 52.44 144.583 51.16C145.564 49.88 146.204 48.1307 146.503 45.912L147.591 46.04C147.25 48.984 146.311 51.3307 144.775 53.08C143.239 54.7867 140.7 55.64 137.159 55.64C133.618 55.64 130.908 54.936 129.031 53.528C127.154 52.12 126.215 49.56 126.215 45.848ZM163.562 39.96H165.419V35.032C165.419 30.9787 165.184 28.2693 164.715 26.904C164.288 25.496 163.435 24.792 162.155 24.792C161.387 24.792 160.683 25.0053 160.043 25.432C159.445 25.816 159.147 26.3707 159.147 27.096C159.147 27.7787 159.275 28.4827 159.531 29.208H161.131C161.472 30.104 161.643 31.192 161.643 32.472C161.643 33.7093 161.109 34.7973 160.043 35.736C158.976 36.632 157.632 37.08 156.01 37.08C152.341 37.08 150.507 35.3093 150.507 31.768C150.507 26.52 154.965 23.896 163.883 23.896C168.96 23.896 172.459 24.7707 174.379 26.52C176.341 28.2267 177.323 31.384 177.323 35.992V48.984C177.323 51.2027 177.941 52.312 179.179 52.312C180.629 52.312 181.483 50.1147 181.739 45.72L182.699 45.784C182.528 49.5387 181.824 52.12 180.587 53.528C179.349 54.936 177.323 55.64 174.507 55.64C169.387 55.64 166.443 54.0613 165.675 50.904C165.12 52.5253 164.288 53.72 163.179 54.488C162.069 55.256 160.448 55.64 158.315 55.64C152 55.64 148.843 53.0587 148.843 47.896C148.843 44.8667 150.037 42.7973 152.427 41.688C154.859 40.536 158.571 39.96 163.562 39.96ZM161.003 47.832C161.003 50.0507 161.109 51.48 161.323 52.12C161.579 52.76 162.027 53.08 162.667 53.08C163.349 53.08 163.968 52.5467 164.523 51.48C165.12 50.3707 165.419 48.856 165.419 46.936V40.984H164.971C162.325 40.984 161.003 42.9253 161.003 46.808V47.832ZM183.072 7H198.752V53.848H202.336V55H183.328V53.848H186.848V8.152H183.072V7ZM0.96 70.2H19.776C26.2187 70.2 31.0187 71.1387 34.176 73.016C37.3333 74.8507 38.912 78.1573 38.912 82.936C38.912 88.2267 36.992 91.8747 33.152 93.88C29.568 95.7147 24.5547 96.632 18.112 96.632H17.6V113.784H25.6V115H0.96V113.784H5.12V71.416H0.96V70.2ZM17.6 71.416V95.416H18.944C21.504 95.416 23.2747 94.5413 24.256 92.792C25.2373 91.0427 25.728 88.2053 25.728 84.28V81.208C25.728 77.5813 25.2587 75.0427 24.32 73.592C23.424 72.1413 21.76 71.416 19.328 71.416H17.6ZM59.937 102.392V96.952C59.937 92.8133 59.7023 89.8053 59.233 87.928C58.8063 86.008 57.7823 85.048 56.161 85.048C55.2223 85.048 54.4543 85.3253 53.857 85.88C53.3023 86.392 52.897 87.2667 52.641 88.504C52.257 90.424 52.065 93.3467 52.065 97.272V102.264C52.065 106.915 52.193 109.709 52.449 110.648C52.7477 111.587 53.0463 112.355 53.345 112.952C53.8143 113.976 54.7317 114.488 56.097 114.488C57.761 114.488 58.849 113.528 59.361 111.608C59.745 110.243 59.937 107.171 59.937 102.392ZM55.969 115.64C50.6357 115.64 46.6037 114.275 43.873 111.544C41.1423 108.813 39.777 104.909 39.777 99.832C39.777 94.712 41.2277 90.7867 44.129 88.056C47.073 85.2827 51.1903 83.896 56.481 83.896C61.7717 83.896 65.7183 85.176 68.321 87.736C70.9237 90.2533 72.225 94.1147 72.225 99.32C72.225 110.2 66.8063 115.64 55.969 115.64ZM95.391 86.328C93.8123 86.328 92.4257 87.352 91.231 89.4C90.0363 91.448 89.439 93.88 89.439 96.696V113.848H93.983V115H74.015V113.848H77.535V85.688H74.015V84.536H89.439V90.68C89.9937 88.504 91.0603 86.84 92.639 85.688C94.2177 84.4933 96.0097 83.896 98.015 83.896C100.02 83.896 101.642 84.472 102.879 85.624C104.159 86.7333 104.799 88.3333 104.799 90.424C104.799 92.472 104.33 94.0507 103.391 95.16C102.452 96.2693 101.002 96.824 99.039 96.824C97.119 96.824 95.6897 96.184 94.751 94.904C93.855 93.624 93.7483 91.8533 94.431 89.592H96.735C97.8017 87.416 97.3537 86.328 95.391 86.328ZM108.903 105.848V85.688H105.383V84.536H108.903V76.28L120.807 73.336V84.536H129.127V85.688H120.807V107.256C120.807 109.261 120.999 110.733 121.383 111.672C121.809 112.611 122.663 113.08 123.943 113.08C125.223 113.08 126.332 112.44 127.271 111.16C128.252 109.88 128.892 108.131 129.191 105.912L130.279 106.04C129.937 108.984 128.999 111.331 127.463 113.08C125.927 114.787 123.388 115.64 119.847 115.64C116.305 115.64 113.596 114.936 111.719 113.528C109.841 112.12 108.903 109.56 108.903 105.848ZM150.282 66.616C148.661 66.616 147.594 67.2347 147.082 68.472C146.57 69.6667 146.314 71.608 146.314 74.296V84.536H154.762V85.688H146.314V113.848H154.122V115H130.89V113.848H134.41V85.688H130.698V84.536H134.41V84.28C134.41 78.136 135.583 73.4853 137.93 70.328C140.277 67.128 144.202 65.528 149.706 65.528C153.333 65.528 155.935 66.2533 157.514 67.704C159.093 69.112 159.882 70.7547 159.882 72.632C159.882 74.5093 159.391 75.9173 158.41 76.856C157.429 77.7947 156.127 78.264 154.506 78.264C152.885 78.264 151.626 77.8587 150.73 77.048C149.877 76.1947 149.45 75.2347 149.45 74.168C149.45 73.0587 149.578 71.992 149.834 70.968H152.266C153.119 68.0667 152.458 66.616 150.282 66.616ZM174.812 102.392V96.952C174.812 92.8133 174.577 89.8053 174.108 87.928C173.681 86.008 172.657 85.048 171.036 85.048C170.097 85.048 169.329 85.3253 168.732 85.88C168.177 86.392 167.772 87.2667 167.516 88.504C167.132 90.424 166.94 93.3467 166.94 97.272V102.264C166.94 106.915 167.068 109.709 167.324 110.648C167.623 111.587 167.921 112.355 168.22 112.952C168.689 113.976 169.607 114.488 170.972 114.488C172.636 114.488 173.724 113.528 174.236 111.608C174.62 110.243 174.812 107.171 174.812 102.392ZM170.844 115.64C165.511 115.64 161.479 114.275 158.748 111.544C156.017 108.813 154.652 104.909 154.652 99.832C154.652 94.712 156.103 90.7867 159.004 88.056C161.948 85.2827 166.065 83.896 171.356 83.896C176.647 83.896 180.593 85.176 183.196 87.736C185.799 90.2533 187.1 94.1147 187.1 99.32C187.1 110.2 181.681 115.64 170.844 115.64ZM188.634 67H204.314V113.848H207.898V115H188.89V113.848H192.41V68.152H188.634V67ZM218.548 80.12C216.287 80.12 214.665 79.544 213.684 78.392C212.745 77.24 212.276 75.8107 212.276 74.104C212.276 72.3973 212.788 70.9893 213.812 69.88C214.879 68.7707 216.479 68.216 218.612 68.216C220.745 68.216 222.367 68.728 223.476 69.752C224.585 70.7333 225.14 72.1627 225.14 74.04C225.14 75.8747 224.607 77.3467 223.54 78.456C222.473 79.5653 220.809 80.12 218.548 80.12ZM208.884 84.536H224.564V113.848H228.148V115H209.14V113.848H212.66V85.688H208.884V84.536ZM250.125 102.392V96.952C250.125 92.8133 249.89 89.8053 249.421 87.928C248.994 86.008 247.97 85.048 246.349 85.048C245.41 85.048 244.642 85.3253 244.045 85.88C243.49 86.392 243.085 87.2667 242.829 88.504C242.445 90.424 242.253 93.3467 242.253 97.272V102.264C242.253 106.915 242.381 109.709 242.637 110.648C242.935 111.587 243.234 112.355 243.533 112.952C244.002 113.976 244.919 114.488 246.285 114.488C247.949 114.488 249.037 113.528 249.549 111.608C249.933 110.243 250.125 107.171 250.125 102.392ZM246.157 115.64C240.823 115.64 236.791 114.275 234.061 111.544C231.33 108.813 229.965 104.909 229.965 99.832C229.965 94.712 231.415 90.7867 234.317 88.056C237.261 85.2827 241.378 83.896 246.669 83.896C251.959 83.896 255.906 85.176 258.509 87.736C261.111 90.2533 262.413 94.1147 262.413 99.32C262.413 110.2 256.994 115.64 246.157 115.64Z" fill="white"/>
<path d="M23.182 154.778C23.182 155.685 23.0007 156.523 22.638 157.294C22.2753 158.042 21.788 158.699 21.176 159.266C20.564 159.81 19.85 160.241 19.034 160.558C18.218 160.853 17.3453 161 16.416 161H5.026V136.86H16.654C17.4927 136.86 18.252 137.041 18.932 137.404C19.612 137.767 20.19 138.243 20.666 138.832C21.142 139.399 21.5047 140.056 21.754 140.804C22.026 141.529 22.162 142.266 22.162 143.014C22.162 144.238 21.856 145.36 21.244 146.38C20.632 147.377 19.782 148.125 18.694 148.624C20.0767 149.032 21.1647 149.791 21.958 150.902C22.774 152.013 23.182 153.305 23.182 154.778ZM20.802 154.37C20.802 153.781 20.7 153.214 20.496 152.67C20.292 152.103 19.9973 151.616 19.612 151.208C19.2493 150.777 18.8073 150.437 18.286 150.188C17.7873 149.916 17.2433 149.78 16.654 149.78H7.406V158.926H16.416C17.028 158.926 17.5947 158.801 18.116 158.552C18.66 158.303 19.1247 157.974 19.51 157.566C19.918 157.135 20.2353 156.648 20.462 156.104C20.6887 155.537 20.802 154.959 20.802 154.37ZM7.406 138.934V147.842H15.702C16.2913 147.842 16.8353 147.717 17.334 147.468C17.8553 147.219 18.2973 146.89 18.66 146.482C19.0227 146.074 19.306 145.609 19.51 145.088C19.714 144.544 19.816 143.977 19.816 143.388C19.816 142.776 19.714 142.198 19.51 141.654C19.3287 141.11 19.0567 140.645 18.694 140.26C18.354 139.852 17.946 139.535 17.47 139.308C16.994 139.059 16.4727 138.934 15.906 138.934H7.406ZM27.6705 161V136.86H37.8705C38.9132 136.86 39.8652 137.087 40.7265 137.54C41.6105 137.971 42.3699 138.549 43.0045 139.274C43.6392 139.977 44.1265 140.781 44.4665 141.688C44.8292 142.595 45.0105 143.513 45.0105 144.442C45.0105 145.326 44.8745 146.176 44.6025 146.992C44.3532 147.785 43.9905 148.511 43.5145 149.168C43.0612 149.803 42.5059 150.347 41.8485 150.8C41.1912 151.231 40.4545 151.525 39.6385 151.684L45.5545 161H42.8685L37.1905 152.092H30.0505V161H27.6705ZM30.0505 149.984H37.9385C38.6412 149.984 39.2759 149.837 39.8425 149.542C40.4319 149.225 40.9305 148.805 41.3385 148.284C41.7465 147.763 42.0639 147.173 42.2905 146.516C42.5172 145.859 42.6305 145.167 42.6305 144.442C42.6305 143.717 42.4945 143.025 42.2225 142.368C41.9732 141.688 41.6219 141.099 41.1685 140.6C40.7379 140.101 40.2165 139.705 39.6045 139.41C39.0152 139.115 38.3919 138.968 37.7345 138.968H30.0505V149.984ZM49.2225 136.86L57.1105 149.848L65.0665 136.86H67.6505L58.3005 152.024V161H55.9205V151.956L46.6045 136.86H49.2225ZM75.924 136.86H77.93L87.96 161H85.444L82.316 153.452H71.47L68.376 161H65.826L75.924 136.86ZM81.772 151.582L76.91 139.648L71.98 151.582H81.772ZM93.8005 141.28V161H91.4205V136.86H93.2565L109.237 156.954V136.894H111.617V161H109.543L93.8005 141.28ZM28.2 186.72C28.2 187.947 27.9467 189.013 27.44 189.92C26.9333 190.827 26.24 191.587 25.36 192.2C24.48 192.787 23.4533 193.24 22.28 193.56C21.1067 193.853 19.8667 194 18.56 194H4.72V165.6H20.52C21.5067 165.6 22.4 165.813 23.2 166.24C24 166.667 24.68 167.227 25.24 167.92C25.8 168.587 26.2267 169.36 26.52 170.24C26.84 171.093 27 171.973 27 172.88C27 174.24 26.6533 175.52 25.96 176.72C25.2933 177.92 24.28 178.827 22.92 179.44C24.5467 179.92 25.8267 180.773 26.76 182C27.72 183.227 28.2 184.8 28.2 186.72ZM21.52 185.4C21.52 184.52 21.2667 183.773 20.76 183.16C20.2533 182.547 19.6133 182.24 18.84 182.24H11.28V188.44H18.56C19.4133 188.44 20.12 188.16 20.68 187.6C21.24 187.04 21.52 186.307 21.52 185.4ZM11.28 171.2V177.08H17.72C18.44 177.08 19.08 176.84 19.64 176.36C20.2 175.88 20.48 175.133 20.48 174.12C20.48 173.187 20.2267 172.467 19.72 171.96C19.24 171.453 18.6533 171.2 17.96 171.2H11.28ZM39.1978 165.6H45.1178L55.4778 194H48.7578L46.5578 187.64H37.7178L35.5578 194H28.8378L39.1978 165.6ZM45.4778 183.12L42.1578 173.08L38.7578 183.12H45.4778ZM58.2747 194V165.6H64.8347V188.24H78.5947V194H58.2747ZM81.6731 194V165.6H88.2331V188.24H101.993V194H81.6731ZM105.072 194V165.6H111.632V194H105.072Z" fill="white"/>
</svg>
