<svg width="296" height="54" viewBox="0 0 296 54" fill="none" xmlns="http://www.w3.org/2000/svg">
<path d="M0.370006 22.9999V2.41992H10.3C11.44 2.41992 12.44 2.62992 13.3 3.04992C14.16 3.46992 14.83 4.05992 15.31 4.81992C15.79 5.57992 16.03 6.45992 16.03 7.45992C16.03 8.63992 15.7 9.64992 15.04 10.4899C14.4 11.3099 13.59 11.8799 12.61 12.1999V12.3199C13.75 12.5999 14.7 13.1599 15.46 13.9999C16.22 14.8399 16.6 16.0199 16.6 17.5399C16.6 18.8199 16.32 19.8599 15.76 20.6599C15.22 21.4599 14.47 22.0499 13.51 22.4299C12.57 22.8099 11.5 22.9999 10.3 22.9999H0.370006ZM3.22001 20.5099H10.24C11.28 20.5099 12.11 20.2599 12.73 19.7599C13.37 19.2599 13.69 18.3999 13.69 17.1799C13.69 16.0199 13.38 15.1499 12.76 14.5699C12.14 13.9899 11.23 13.6999 10.03 13.6999H3.22001V20.5099ZM3.22001 11.2099H9.73001C10.75 11.2099 11.57 10.9199 12.19 10.3399C12.81 9.73992 13.12 8.96992 13.12 8.02992C13.12 6.94992 12.83 6.15992 12.25 5.65992C11.67 5.15992 10.91 4.90992 9.97001 4.90992H3.22001V11.2099Z" fill="black"/>
<path d="M18.5798 22.9999V2.41992H29.2898C31.4098 2.41992 32.9998 2.96992 34.0598 4.06992C35.1398 5.14992 35.6798 6.54992 35.6798 8.26992C35.6798 9.68992 35.3398 10.9099 34.6598 11.9299C33.9998 12.9299 33.0798 13.6499 31.8998 14.0899L36.6398 22.9999H33.4598L28.9898 14.5099H21.4298V22.9999H18.5798ZM21.4298 12.0199H29.1398C30.2398 12.0199 31.1198 11.6899 31.7798 11.0299C32.4598 10.3699 32.7998 9.45992 32.7998 8.29992C32.7998 7.23992 32.4898 6.40992 31.8698 5.80992C31.2698 5.20992 30.3598 4.90992 29.1398 4.90992H21.4298V12.0199Z" fill="black"/>
<path d="M44.1428 22.9999V14.4799L36.0128 2.41992H39.4628L45.5828 11.8399H45.7328L51.8228 2.41992H55.0928L46.9928 14.4799V22.9999H44.1428Z" fill="black"/>
<path d="M51.726 22.9999L59.706 2.41992H63.336L71.316 22.9999H68.286L66.216 17.5099H56.676L54.666 22.9999H51.726ZM57.606 15.0199H65.286L62.886 8.59992C62.766 8.29992 62.646 7.99992 62.526 7.69992C62.426 7.37992 62.316 7.05992 62.196 6.73992C62.076 6.41992 61.956 6.10992 61.836 5.80992C61.736 5.48992 61.626 5.17992 61.506 4.87992H61.356C61.236 5.17992 61.116 5.48992 60.996 5.80992C60.896 6.10992 60.786 6.40992 60.666 6.70992C60.566 7.00992 60.456 7.31992 60.336 7.63992C60.236 7.93992 60.126 8.23992 60.006 8.53992L57.606 15.0199Z" fill="black"/>
<path d="M72.0958 22.9999V2.41992H74.6458L85.5058 16.7599C85.5858 16.8799 85.6658 16.9899 85.7458 17.0899C85.8258 17.1899 85.9058 17.2899 85.9858 17.3899C86.0658 17.4899 86.1458 17.5999 86.2258 17.7199L86.3458 17.6899C86.3458 17.5299 86.3458 17.3799 86.3458 17.2399C86.3458 17.0799 86.3458 16.9199 86.3458 16.7599C86.3458 16.5999 86.3458 16.4399 86.3458 16.2799V2.41992H89.0158V22.9999H86.5858L75.6658 8.47992C75.5258 8.29992 75.3958 8.12992 75.2758 7.96992C75.1558 7.78992 75.0258 7.60992 74.8858 7.42992L74.7658 7.45992C74.7658 7.61992 74.7658 7.77992 74.7658 7.93992C74.7658 8.09992 74.7658 8.25992 74.7658 8.41992C74.7658 8.55992 74.7658 8.70992 74.7658 8.86992V22.9999H72.0958Z" fill="black"/>
<path d="M14.492 31.6719C15.5667 31.6719 16.5483 31.8993 17.437 32.3539C18.3463 32.7879 19.0593 33.4079 19.576 34.2139C20.1133 35.0199 20.382 35.9189 20.382 36.9109C20.382 39.5356 19.1937 41.1889 16.817 41.8709V41.9949C19.5243 42.6149 20.878 44.3923 20.878 47.3269C20.878 48.4429 20.599 49.4349 20.041 50.3029C19.5037 51.1503 18.7597 51.8116 17.809 52.2869C16.8583 52.7623 15.8147 52.9999 14.678 52.9999H0.294006V31.6719H14.492ZM7.14501 39.9799H11.857C12.3117 39.9799 12.6837 39.8249 12.973 39.5149C13.283 39.1843 13.438 38.7813 13.438 38.3059V37.9959C13.438 37.5413 13.283 37.1589 12.973 36.8489C12.663 36.5183 12.291 36.3529 11.857 36.3529H7.14501V39.9799ZM7.14501 48.0399H12.353C12.8077 48.0399 13.1797 47.8849 13.469 47.5749C13.779 47.2443 13.934 46.8413 13.934 46.3659V46.0559C13.934 45.5806 13.779 45.1879 13.469 44.8779C13.1797 44.5473 12.8077 44.3819 12.353 44.3819H7.14501V48.0399Z" fill="black"/>
<path d="M36.3383 52.9999L35.4393 49.9929H27.9683L27.0693 52.9999H20.0633L27.8443 31.6719H35.8113L43.5923 52.9999H36.3383ZM29.3943 45.2189H34.0133L31.7813 37.6239H31.6573L29.3943 45.2189Z" fill="black"/>
<path d="M44.3152 31.6719H51.1662V47.5439H62.1092V52.9999H44.3152V31.6719Z" fill="black"/>
<path d="M63.132 31.6719H69.983V47.5439H80.926V52.9999H63.132V31.6719Z" fill="black"/>
<path d="M82.2587 52.9999V31.6719H89.1097V52.9999H82.2587Z" fill="black"/>
<path d="M120.37 23.0001V2.42006H127.99C131.21 2.42006 133.73 3.24006 135.55 4.88006C137.37 6.52006 138.28 9.13006 138.28 12.7101C138.28 16.2901 137.37 18.9001 135.55 20.5401C133.73 22.1801 131.21 23.0001 127.99 23.0001H120.37ZM123.22 20.5101H127.99C129.49 20.5101 130.79 20.2701 131.89 19.7901C132.99 19.2901 133.84 18.4801 134.44 17.3601C135.04 16.2201 135.34 14.6901 135.34 12.7701V12.7101C135.34 10.7701 135.04 9.24006 134.44 8.12006C133.86 6.98006 133.02 6.16006 131.92 5.66006C130.82 5.16006 129.51 4.91006 127.99 4.91006H123.22V20.5101Z" fill="black"/>
<path d="M140.61 23.0001V2.42006H143.46V23.0001H140.61Z" fill="black"/>
<path d="M156.01 23.3601C153.79 23.3601 151.92 22.9701 150.4 22.1901C148.88 21.4101 147.73 20.2301 146.95 18.6501C146.19 17.0701 145.81 15.0901 145.81 12.7101C145.81 9.13006 146.68 6.46006 148.42 4.70006C150.18 2.94006 152.77 2.06006 156.19 2.06006C157.55 2.06006 158.8 2.21006 159.94 2.51006C161.1 2.81006 162.1 3.27006 162.94 3.89006C163.78 4.49006 164.43 5.26006 164.89 6.20006C165.37 7.12006 165.61 8.20006 165.61 9.44006H162.7C162.7 8.30006 162.42 7.37006 161.86 6.65006C161.32 5.91006 160.56 5.37006 159.58 5.03006C158.62 4.67006 157.49 4.49006 156.19 4.49006C153.75 4.49006 151.9 5.12006 150.64 6.38006C149.4 7.62006 148.78 9.73006 148.78 12.7101V12.7701C148.8 15.7501 149.42 17.8601 150.64 19.1001C151.86 20.3201 153.65 20.9301 156.01 20.9301C157.55 20.9301 158.82 20.7201 159.82 20.3001C160.82 19.8601 161.56 19.2101 162.04 18.3501C162.52 17.4901 162.76 16.4001 162.76 15.0801V13.5801L163.96 14.7801H155.5V12.2901H165.61V23.0001H163.39L163.18 20.7201C162.36 21.6401 161.33 22.3101 160.09 22.7301C158.85 23.1501 157.49 23.3601 156.01 23.3601Z" fill="black"/>
<path d="M168.71 23.0001V2.42006H171.56V23.0001H168.71Z" fill="black"/>
<path d="M180.239 23.0001V4.91006H173.159V2.42006H190.169V4.91006H183.089V23.0001H180.239Z" fill="black"/>
<path d="M187.022 23.0001L195.003 2.42006H198.632L206.613 23.0001H203.583L201.512 17.5101H191.973L189.963 23.0001H187.022ZM192.903 15.0201H200.583L198.183 8.60006C198.063 8.30006 197.943 8.00006 197.823 7.70006C197.723 7.38006 197.613 7.06006 197.493 6.74006C197.373 6.42006 197.252 6.11006 197.132 5.81006C197.032 5.49006 196.922 5.18006 196.802 4.88006H196.653C196.533 5.18006 196.413 5.49006 196.293 5.81006C196.193 6.11006 196.083 6.41006 195.963 6.71006C195.863 7.01006 195.752 7.32006 195.632 7.64006C195.532 7.94006 195.422 8.24006 195.302 8.54006L192.903 15.0201Z" fill="black"/>
<path d="M207.392 23.0001V2.42006H210.242V20.5101H220.802V23.0001H207.392Z" fill="black"/>
<path d="M131.8 32.3601C133.08 32.3601 134.22 32.6601 135.22 33.2601C136.22 33.8401 137 34.6501 137.56 35.6901C138.12 36.7101 138.4 37.8601 138.4 39.1401V39.5301C138.4 40.8101 138.12 41.9701 137.56 43.0101C137 44.0501 136.22 44.8701 135.22 45.4701C134.22 46.0501 133.08 46.3401 131.8 46.3401H126.85V53.0001H120.22V32.3601H131.8ZM126.85 41.5101H129.58C130.28 41.5101 130.8 41.3301 131.14 40.9701C131.5 40.6101 131.68 40.1201 131.68 39.5001V39.2601C131.68 38.6201 131.5 38.1301 131.14 37.7901C130.8 37.4301 130.28 37.2501 129.58 37.2501H126.85V41.5101Z" fill="black"/>
<path d="M150.33 32.0001C153.89 32.0001 156.64 32.9101 158.58 34.7301C160.52 36.5501 161.49 39.2001 161.49 42.6801C161.49 46.1601 160.52 48.8101 158.58 50.6301C156.64 52.4501 153.89 53.3601 150.33 53.3601C146.77 53.3601 144.02 52.4601 142.08 50.6601C140.16 48.8401 139.2 46.1801 139.2 42.6801C139.2 39.1801 140.16 36.5301 142.08 34.7301C144.02 32.9101 146.77 32.0001 150.33 32.0001ZM150.33 36.9501C148.91 36.9501 147.83 37.3801 147.09 38.2401C146.35 39.1001 145.98 40.2601 145.98 41.7201V43.6401C145.98 45.1001 146.35 46.2601 147.09 47.1201C147.83 47.9801 148.91 48.4101 150.33 48.4101C151.75 48.4101 152.83 47.9801 153.57 47.1201C154.33 46.2601 154.71 45.1001 154.71 43.6401V41.7201C154.71 40.2601 154.33 39.1001 153.57 38.2401C152.83 37.3801 151.75 36.9501 150.33 36.9501Z" fill="black"/>
<path d="M182.851 38.6901C182.851 39.9501 182.511 41.0901 181.831 42.1101C181.151 43.1301 180.161 43.8801 178.861 44.3601L183.451 53.0001H176.011L172.351 45.4701H169.891V53.0001H163.261V32.3601H175.891C177.371 32.3601 178.631 32.6501 179.671 33.2301C180.731 33.7901 181.521 34.5601 182.041 35.5401C182.581 36.5001 182.851 37.5501 182.851 38.6901ZM176.101 38.9601C176.101 38.4201 175.921 37.9701 175.561 37.6101C175.201 37.2501 174.761 37.0701 174.241 37.0701H169.891V40.8801H174.241C174.761 40.8801 175.201 40.7001 175.561 40.3401C175.921 39.9601 176.101 39.5001 176.101 38.9601Z" fill="black"/>
<path d="M196.427 37.6401V53.0001H189.797V37.6401H183.017V32.3601H203.177V37.6401H196.427Z" fill="black"/>
<path d="M204.397 32.3601H221.077V37.3101H211.027V40.8501H219.667V45.5901H211.027V53.0001H204.397V32.3601Z" fill="black"/>
<path d="M232.867 32.0001C236.427 32.0001 239.177 32.9101 241.117 34.7301C243.057 36.5501 244.027 39.2001 244.027 42.6801C244.027 46.1601 243.057 48.8101 241.117 50.6301C239.177 52.4501 236.427 53.3601 232.867 53.3601C229.307 53.3601 226.557 52.4601 224.617 50.6601C222.697 48.8401 221.737 46.1801 221.737 42.6801C221.737 39.1801 222.697 36.5301 224.617 34.7301C226.557 32.9101 229.307 32.0001 232.867 32.0001ZM232.867 36.9501C231.447 36.9501 230.367 37.3801 229.627 38.2401C228.887 39.1001 228.517 40.2601 228.517 41.7201V43.6401C228.517 45.1001 228.887 46.2601 229.627 47.1201C230.367 47.9801 231.447 48.4101 232.867 48.4101C234.287 48.4101 235.367 47.9801 236.107 47.1201C236.867 46.2601 237.247 45.1001 237.247 43.6401V41.7201C237.247 40.2601 236.867 39.1001 236.107 38.2401C235.367 37.3801 234.287 36.9501 232.867 36.9501Z" fill="black"/>
<path d="M245.797 32.3601H252.427V47.7201H263.017V53.0001H245.797V32.3601Z" fill="black"/>
<path d="M264.307 53.0001V32.3601H270.937V53.0001H264.307Z" fill="black"/>
<path d="M284.127 32.0001C287.687 32.0001 290.437 32.9101 292.377 34.7301C294.317 36.5501 295.287 39.2001 295.287 42.6801C295.287 46.1601 294.317 48.8101 292.377 50.6301C290.437 52.4501 287.687 53.3601 284.127 53.3601C280.567 53.3601 277.817 52.4601 275.877 50.6601C273.957 48.8401 272.997 46.1801 272.997 42.6801C272.997 39.1801 273.957 36.5301 275.877 34.7301C277.817 32.9101 280.567 32.0001 284.127 32.0001ZM284.127 36.9501C282.707 36.9501 281.627 37.3801 280.887 38.2401C280.147 39.1001 279.777 40.2601 279.777 41.7201V43.6401C279.777 45.1001 280.147 46.2601 280.887 47.1201C281.627 47.9801 282.707 48.4101 284.127 48.4101C285.547 48.4101 286.627 47.9801 287.367 47.1201C288.127 46.2601 288.507 45.1001 288.507 43.6401V41.7201C288.507 40.2601 288.127 39.1001 287.367 38.2401C286.627 37.3801 285.547 36.9501 284.127 36.9501Z" fill="black"/>
<path fill-rule="evenodd" clip-rule="evenodd" d="M102 53L102 -4.37114e-08L103 0L103 53L102 53Z" fill="black"/>
</svg>
