<svg width="284" height="22" viewBox="0 0 284 22" fill="none" xmlns="http://www.w3.org/2000/svg">
<path d="M0.37 21V0.419999H7.99C11.21 0.419999 13.73 1.24 15.55 2.88C17.37 4.52 18.28 7.13 18.28 10.71C18.28 14.29 17.37 16.9 15.55 18.54C13.73 20.18 11.21 21 7.99 21H0.37ZM3.22 18.51H7.99C9.49 18.51 10.79 18.27 11.89 17.79C12.99 17.29 13.84 16.48 14.44 15.36C15.04 14.22 15.34 12.69 15.34 10.77V10.71C15.34 8.77 15.04 7.24 14.44 6.12C13.86 4.98 13.02 4.16 11.92 3.66C10.82 3.16 9.51 2.91 7.99 2.91H3.22V18.51ZM20.6104 21V0.419999H23.4604V21H20.6104ZM36.01 21.36C33.79 21.36 31.92 20.97 30.4 20.19C28.88 19.41 27.73 18.23 26.95 16.65C26.19 15.07 25.81 13.09 25.81 10.71C25.81 7.13 26.68 4.46 28.42 2.7C30.18 0.94 32.77 0.0599996 36.19 0.0599996C37.55 0.0599996 38.8 0.209999 39.94 0.509999C41.1 0.809999 42.1 1.27 42.94 1.89C43.78 2.49 44.43 3.26 44.89 4.2C45.37 5.12 45.61 6.2 45.61 7.44H42.7C42.7 6.3 42.42 5.37 41.86 4.65C41.32 3.91 40.56 3.37 39.58 3.03C38.62 2.67 37.49 2.49 36.19 2.49C33.75 2.49 31.9 3.12 30.64 4.38C29.4 5.62 28.78 7.73 28.78 10.71V10.77C28.8 13.75 29.42 15.86 30.64 17.1C31.86 18.32 33.65 18.93 36.01 18.93C37.55 18.93 38.82 18.72 39.82 18.3C40.82 17.86 41.56 17.21 42.04 16.35C42.52 15.49 42.76 14.4 42.76 13.08V11.58L43.96 12.78H35.5V10.29H45.61V21H43.39L43.18 18.72C42.36 19.64 41.33 20.31 40.09 20.73C38.85 21.15 37.49 21.36 36.01 21.36ZM48.7096 21V0.419999H51.5596V21H48.7096ZM60.2392 21V2.91H53.1592V0.419999H70.1692V2.91H63.0892V21H60.2392ZM67.0225 21L75.0025 0.419999H78.6325L86.6125 21H83.5825L81.5125 15.51H71.9725L69.9625 21H67.0225ZM72.9025 13.02H80.5825L78.1825 6.6C78.0625 6.3 77.9425 6 77.8225 5.7C77.7225 5.38 77.6125 5.06 77.4925 4.74C77.3725 4.42 77.2525 4.11 77.1325 3.81C77.0325 3.49 76.9225 3.18 76.8025 2.88H76.6525C76.5325 3.18 76.4125 3.49 76.2925 3.81C76.1925 4.11 76.0825 4.41 75.9625 4.71C75.8625 5.01 75.7525 5.32 75.6325 5.64C75.5325 5.94 75.4225 6.24 75.3025 6.54L72.9025 13.02ZM87.3923 21V0.419999H90.2423V18.51H100.802V21H87.3923ZM120.242 0.359999C121.522 0.359999 122.662 0.659999 123.662 1.26C124.662 1.84 125.442 2.65 126.002 3.69C126.562 4.71 126.842 5.86 126.842 7.14V7.53C126.842 8.81 126.562 9.97 126.002 11.01C125.442 12.05 124.662 12.87 123.662 13.47C122.662 14.05 121.522 14.34 120.242 14.34H115.292V21H108.662V0.359999H120.242ZM115.292 9.51H118.022C118.722 9.51 119.242 9.33 119.582 8.97C119.942 8.61 120.122 8.12 120.122 7.5V7.26C120.122 6.62 119.942 6.13 119.582 5.79C119.242 5.43 118.722 5.25 118.022 5.25H115.292V9.51ZM138.772 -1.43051e-06C142.332 -1.43051e-06 145.082 0.909999 147.022 2.73C148.962 4.55 149.932 7.2 149.932 10.68C149.932 14.16 148.962 16.81 147.022 18.63C145.082 20.45 142.332 21.36 138.772 21.36C135.212 21.36 132.462 20.46 130.522 18.66C128.602 16.84 127.642 14.18 127.642 10.68C127.642 7.18 128.602 4.53 130.522 2.73C132.462 0.909999 135.212 -1.43051e-06 138.772 -1.43051e-06ZM138.772 4.95C137.352 4.95 136.272 5.38 135.532 6.24C134.792 7.1 134.422 8.26 134.422 9.72V11.64C134.422 13.1 134.792 14.26 135.532 15.12C136.272 15.98 137.352 16.41 138.772 16.41C140.192 16.41 141.272 15.98 142.012 15.12C142.772 14.26 143.152 13.1 143.152 11.64V9.72C143.152 8.26 142.772 7.1 142.012 6.24C141.272 5.38 140.192 4.95 138.772 4.95ZM171.292 6.69C171.292 7.95 170.952 9.09 170.272 10.11C169.592 11.13 168.602 11.88 167.302 12.36L171.892 21H164.452L160.792 13.47H158.332V21H151.702V0.359999H164.332C165.812 0.359999 167.072 0.649999 168.112 1.23C169.172 1.79 169.962 2.56 170.482 3.54C171.022 4.5 171.292 5.55 171.292 6.69ZM164.542 6.96C164.542 6.42 164.362 5.97 164.002 5.61C163.642 5.25 163.202 5.07 162.682 5.07H158.332V8.88H162.682C163.202 8.88 163.642 8.7 164.002 8.34C164.362 7.96 164.542 7.5 164.542 6.96ZM184.868 5.64V21H178.238V5.64H171.458V0.359999H191.618V5.64H184.868ZM192.839 0.359999H209.519V5.31H199.469V8.85H208.109V13.59H199.469V21H192.839V0.359999ZM221.309 -1.43051e-06C224.869 -1.43051e-06 227.619 0.909999 229.559 2.73C231.499 4.55 232.469 7.2 232.469 10.68C232.469 14.16 231.499 16.81 229.559 18.63C227.619 20.45 224.869 21.36 221.309 21.36C217.749 21.36 214.999 20.46 213.059 18.66C211.139 16.84 210.179 14.18 210.179 10.68C210.179 7.18 211.139 4.53 213.059 2.73C214.999 0.909999 217.749 -1.43051e-06 221.309 -1.43051e-06ZM221.309 4.95C219.889 4.95 218.809 5.38 218.069 6.24C217.329 7.1 216.959 8.26 216.959 9.72V11.64C216.959 13.1 217.329 14.26 218.069 15.12C218.809 15.98 219.889 16.41 221.309 16.41C222.729 16.41 223.809 15.98 224.549 15.12C225.309 14.26 225.689 13.1 225.689 11.64V9.72C225.689 8.26 225.309 7.1 224.549 6.24C223.809 5.38 222.729 4.95 221.309 4.95ZM234.239 0.359999H240.869V15.72H251.459V21H234.239V0.359999ZM252.749 21V0.359999H259.379V21H252.749ZM272.569 -1.43051e-06C276.129 -1.43051e-06 278.879 0.909999 280.819 2.73C282.759 4.55 283.729 7.2 283.729 10.68C283.729 14.16 282.759 16.81 280.819 18.63C278.879 20.45 276.129 21.36 272.569 21.36C269.009 21.36 266.259 20.46 264.319 18.66C262.399 16.84 261.439 14.18 261.439 10.68C261.439 7.18 262.399 4.53 264.319 2.73C266.259 0.909999 269.009 -1.43051e-06 272.569 -1.43051e-06ZM272.569 4.95C271.149 4.95 270.069 5.38 269.329 6.24C268.589 7.1 268.219 8.26 268.219 9.72V11.64C268.219 13.1 268.589 14.26 269.329 15.12C270.069 15.98 271.149 16.41 272.569 16.41C273.989 16.41 275.069 15.98 275.809 15.12C276.569 14.26 276.949 13.1 276.949 11.64V9.72C276.949 8.26 276.569 7.1 275.809 6.24C275.069 5.38 273.989 4.95 272.569 4.95Z" fill="black"/>
</svg>
